<svg xmlns="http://www.w3.org/2000/svg" xmlns:xlink="http://www.w3.org/1999/xlink" width="124" height="155" class="thumb">
  <defs/>
  <g>
    <g transform="translate(-185) rotate(178.989 157.212 80.904) scale(1.2858)">
      <svg width="77.004" height="53.7" viewBox="11.429 23.96 77.004 53.7">
        <defs>
          <linearGradient id="a" x1="0" x2="1" y1=".5" y2=".5">
            <stop offset="0%" stop-color="#74d14c" stop-opacity=".54"/>
            <stop offset="100%" stop-color="#74d14c" stop-opacity=".54"/>
          </linearGradient>
        </defs>
        <g>
          <path fill="url('#a')" fill-rule="evenodd" d="M73.232 28.96c-5.631 0-10.194 4.567-10.194 10.197 0 8.74-4.368 13.108-13.11 13.108-8.737 0-13.111-4.369-13.111-13.108 0-5.63-4.563-10.197-10.194-10.197s-10.194 4.567-10.194 10.197c0 5.631 4.563 10.198 10.194 10.198 8.742 0 13.111 4.369 13.111 13.111 0 5.631 4.563 10.194 10.195 10.194 5.63 0 10.2-4.563 10.2-10.194 0-8.742 4.368-13.111 13.104-13.111 5.637 0 10.2-4.567 10.2-10.198 0-5.63-4.564-10.197-10.201-10.197z" clip-rule="evenodd"/>
        </g>
      </svg>
    </g>
    <g transform="translate(30 61.575) scale(1.2858)">
      <svg width="77.004" height="53.7" viewBox="11.429 23.96 77.004 53.7">
        <defs>
          <linearGradient id="b" x1="0" x2="1" y1=".5" y2=".5">
            <stop offset="0%" stop-color="#61c78c" stop-opacity=".54"/>
            <stop offset="100%" stop-color="#61c78c" stop-opacity=".54"/>
          </linearGradient>
        </defs>
        <g>
          <path fill="url('#b')" fill-rule="evenodd" d="M73.232 28.96c-5.631 0-10.194 4.567-10.194 10.197 0 8.74-4.368 13.108-13.11 13.108-8.737 0-13.111-4.369-13.111-13.108 0-5.63-4.563-10.197-10.194-10.197s-10.194 4.567-10.194 10.197c0 5.631 4.563 10.198 10.194 10.198 8.742 0 13.111 4.369 13.111 13.111 0 5.631 4.563 10.194 10.195 10.194 5.63 0 10.2-4.563 10.2-10.194 0-8.742 4.368-13.111 13.104-13.111 5.637 0 10.2-4.567 10.2-10.198 0-5.63-4.564-10.197-10.201-10.197z" clip-rule="evenodd"/>
        </g>
      </svg>
    </g>
    <g transform="translate(-185) rotate(87.999 124.9 130.23) scale(1.2858)">
      <svg width="77.004" height="53.7" viewBox="11.429 23.96 77.004 53.7">
        <defs>
          <linearGradient id="c" x1="0" x2="1" y1=".5" y2=".5">
            <stop offset="0%" stop-color="#33b5cc" stop-opacity=".53"/>
            <stop offset="100%" stop-color="#33b5cc" stop-opacity=".53"/>
          </linearGradient>
        </defs>
        <g>
          <path fill="url('#c')" fill-rule="evenodd" d="M73.232 28.96c-5.631 0-10.194 4.567-10.194 10.197 0 8.74-4.368 13.108-13.11 13.108-8.737 0-13.111-4.369-13.111-13.108 0-5.63-4.563-10.197-10.194-10.197s-10.194 4.567-10.194 10.197c0 5.631 4.563 10.198 10.194 10.198 8.742 0 13.111 4.369 13.111 13.111 0 5.631 4.563 10.194 10.195 10.194 5.63 0 10.2-4.563 10.2-10.194 0-8.742 4.368-13.111 13.104-13.111 5.637 0 10.2-4.567 10.2-10.198 0-5.63-4.564-10.197-10.201-10.197z" clip-rule="evenodd"/>
        </g>
      </svg>
    </g>
    <g transform="translate(-185) rotate(90 96.56 157.853) scale(1.2858)">
      <svg width="77.004" height="53.7" viewBox="11.429 23.96 77.004 53.7">
        <defs>
          <linearGradient id="d" x1="0" x2="1" y1=".5" y2=".5">
            <stop offset="0%" stop-color="#5accc2" stop-opacity=".53"/>
            <stop offset="100%" stop-color="#5accc2" stop-opacity=".53"/>
          </linearGradient>
        </defs>
        <g>
          <path fill="url('#d')" fill-rule="evenodd" d="M73.232 28.96c-5.631 0-10.194 4.567-10.194 10.197 0 8.74-4.368 13.108-13.11 13.108-8.737 0-13.111-4.369-13.111-13.108 0-5.63-4.563-10.197-10.194-10.197s-10.194 4.567-10.194 10.197c0 5.631 4.563 10.198 10.194 10.198 8.742 0 13.111 4.369 13.111 13.111 0 5.631 4.563 10.194 10.195 10.194 5.63 0 10.2-4.563 10.2-10.194 0-8.742 4.368-13.111 13.104-13.111 5.637 0 10.2-4.567 10.2-10.198 0-5.63-4.564-10.197-10.201-10.197z" clip-rule="evenodd"/>
        </g>
      </svg>
    </g>
    
  </g>
</svg>